HIERARCHY
ROOT Hips
{
	OFFSET 0.000000 0.000000 0.000000 
	CHANNELS 6 Xposition Yposition Zposition Yrotation Zrotation Xrotation 
	JOINT Lumbar
	{
		OFFSET 0.000000 0.000000 0.000000 
		CHANNELS 3 Zrotation Xrotation Yrotation
		JOINT Neck
		{
			OFFSET 0.000000 0.445665 0.000000 
			CHANNELS 3 Zrotation Xrotation Yrotation
			End Site
			{
				OFFSET 0.000000 0.227535 0.000000 
			}
		}
		JOINT RightShoulder
		{
			OFFSET 0.019635 0.377685 0.194865 
			CHANNELS 3 Zrotation Xrotation Yrotation
			JOINT RightElbow
			{
				OFFSET 0.000000 -0.243375 0.000000 
				CHANNELS 2 Zrotation Yrotation
				JOINT RightWrist
				{
					OFFSET 0.000000 -0.264825 0.000000 
					CHANNELS 2 Zrotation Xrotation
					End Site
					{
						OFFSET 0.006600 -0.176220 0.000990 
					}
				}
			}
		}
		JOINT LeftShoulder
		{
			OFFSET 0.019635 0.377685 -0.194865 
			CHANNELS 3 Zrotation Xrotation Yrotation
			JOINT LeftElbow
			{
				OFFSET 0.000000 -0.243375 0.000000 
				CHANNELS 2 Zrotation Yrotation
				JOINT LeftWrist
				{
					OFFSET 0.000000 -0.264825 0.000000 
					CHANNELS 2 Zrotation Xrotation
					End Site
					{
						OFFSET 0.006600 -0.176220 -0.000990 
					}
				}
			}
		}
	}
	JOINT RightHip
	{
		OFFSET 0.052140 -0.069960 0.075570 
		CHANNELS 3 Zrotation Xrotation Yrotation
		JOINT RightKnee
		{
			OFFSET 0.000000 -0.402270 0.000000 
			CHANNELS 1 Zrotation
			JOINT RightAnkle
			{
				OFFSET 0.000000 -0.404085 0.000000 
				CHANNELS 3 Zrotation Xrotation Yrotation
				End Site
				{
					OFFSET 0.204105 -0.089430 0.008415 
				}
			}
		}
	}
	JOINT LeftHip
	{
		OFFSET 0.052140 -0.069960 -0.075570 
		CHANNELS 3 Zrotation Xrotation Yrotation
		JOINT LeftKnee
		{
			OFFSET 0.000000 -0.402270 0.000000 
			CHANNELS 1 Zrotation
			JOINT LeftAnkle
			{
				OFFSET 0.000000 -0.404085 0.000000 
				CHANNELS 3 Zrotation Xrotation Yrotation
				End Site
				{
					OFFSET 0.204105 -0.089430 -0.008415 
				}
			}
		}
	}
}
MOTION
Frames: 33
Frame Time: 0.02
0.62678 0.12283 -0.26198 76.55353 -22.7118 -9.96371 37.73157 0.3493 -0.87914 -11.12891 -12.53293 -2.11994 -23.97103 -11.47993 30.78927 118.61728 102.68432 18.06765 1.03749 -7.80396 9.95205 -36.96584 118.63572 -111.68063 20.75931 -2.41585 18.68393 -4.09098 -8.0629 -17.40503 -6.21931 -2.31054 -3.32461 26.09191 21.05585 -4.71644 -6.3899 -10.63865 -1.05111 1.89827
0.63668 0.12291 -0.25297 78.49005 -22.78489 -10.39334 36.7366 0.58216 -1.46705 -10.96431 -12.37967 -2.11994 -24.19661 -11.41565 30.92875 118.72832 101.73666 17.36032 0.96268 -7.4716 10.3192 -37.39744 118.72622 -111.56823 20.36208 -2.59235 18.54733 -2.75704 -9.06251 -17.21391 -6.21503 -2.41275 -3.37672 27.95891 21.17375 -5.17443 -8.30237 -10.64016 -0.93541 1.95665
0.64571 0.12217 -0.24342 80.54148 -22.9186 -10.79155 35.68287 0.85171 -2.07488 -10.7439 -12.22902 -2.11994 -24.43409 -11.18238 31.01088 118.77728 100.68856 16.69179 0.8651 -7.06797 10.68297 -37.82063 118.84878 -111.85025 20.0695 -2.90609 18.63037 -1.49019 -10.0037 -17.17021 -6.21106 -2.52816 -3.43711 30.25203 21.0221 -5.54893 -10.85319 -10.56072 -0.7746 2.03518
0.65503 0.12187 -0.23418 82.54768 -23.03052 -11.18905 34.66716 1.10515 -2.66513 -10.55676 -12.0789 -2.11994 -24.66621 -11.02919 31.11672 118.85271 99.70083 16.01045 0.78001 -6.72093 11.03072 -38.23399 118.95201 -111.91681 19.71939 -3.14027 18.62178 -0.21783 -10.96778 -17.06068 -6.20967 -2.63812 -3.49397 32.30246 20.96635 -5.87937 -13.03745 -10.51747 -0.62967 2.10664
0.66479 0.12129 -0.22465 84.53081 -23.11212 -11.65306 33.59594 1.35808 -3.30047 -10.33834 -11.9202 -2.11994 -24.90329 -10.85972 31.23454 118.93524 98.64818 15.3027 0.68649 -6.27315 11.45964 -38.70879 119.07741 -112.11847 19.40077 -3.44206 18.57403 1.16506 -11.94503 -16.94841 -6.19732 -2.74621 -3.55004 34.56034 21.01914 -6.55506 -15.55365 -10.47564 -0.5018 2.17044
0.67341 0.12109 -0.21561 86.58658 -23.27448 -11.96865 32.6309 1.61931 -3.84175 -10.17041 -11.78023 -2.11994 -25.12998 -10.68502 31.31379 118.98871 97.70997 14.66338 0.60631 -6.01574 11.71773 -39.05175 119.16407 -112.14286 19.04896 -3.63832 18.66329 2.29781 -12.88114 -16.87651 -6.20777 -2.86103 -3.60959 36.48812 20.78483 -6.50255 -17.52508 -10.41271 -0.3301 2.25384
0.67918 0.12211 -0.20799 88.8168 -23.63304 -11.89699 31.95409 1.9038 -4.13509 -10.16275 -11.69491 -2.11994 -25.33611 -10.53629 31.29101 118.97242 97.08747 14.17944 0.55062 -6.32628 11.48283 -39.03769 119.12819 -111.53647 18.53606 -3.49996 19.05748 2.78139 -13.72494 -16.87382 -6.27996 -2.99285 -3.67738 37.38652 19.80495 -4.33029 -17.85513 -10.30341 -0.0295 2.39523
0.68381 0.12353 -0.20089 91.11436 -24.07307 -11.6742 31.39024 2.1935 -4.32865 -10.20615 -11.62793 -2.11994 -25.52872 -10.38862 31.23289 118.92981 96.58832 13.76746 0.51187 -6.8265 11.07883 -38.88995 119.05327 -110.74826 17.99461 -3.25313 19.58538 3.01071 -14.52739 -16.90739 -6.37529 -3.13065 -3.74824 37.93926 18.54983 -1.45009 -17.6112 -10.17725 0.31041 2.55415
0.68889 0.12477 -0.19357 93.37957 -24.48513 -11.51032 30.78871 2.47455 -4.55621 -10.22142 -11.55042 -2.11994 -25.71971 -10.24146 31.19663 118.90236 96.04904 13.33963 0.47721 -7.22348 10.76555 -38.79947 119.00087 -110.07472 17.49675 -3.06274 20.06619 3.33929 -15.34599 -16.92805 -6.46055 -3.26456 -3.81723 38.66027 17.43249 1.02199 -17.61528 -10.064 0.61932 2.69897
0.69423 0.126 -0.18616 95.65848 -24.86359 -11.38584 30.12899 2.78339 -4.83351 -10.25611 -11.48219 -2.11994 -25.94399 -10.08431 31.13337 118.85948 95.43894 12.84438 0.39327 -7.68919 10.39422 -38.72297 118.92944 -109.27987 16.87589 -2.84654 20.49955 3.73339 -16.17812 -16.93898 -6.54358 -3.4038 -3.88849 39.35332 16.24956 3.85914 -17.69218 -9.92557 0.98367 2.8696
0.69877 0.12734 -0.17907 97.92054 -25.32736 -11.1448 29.61607 3.03514 -4.98196 -10.26252 -11.399 -2.11994 -26.09552 -9.95028 31.11942 118.84299 95.00701 12.50308 0.41474 -8.05863 10.10308 -38.58637 118.888 -108.68887 16.49969 -2.65701 21.05731 3.9327 -16.96744 -16.97665 -6.63722 -3.53327 -3.9557 40.01152 15.14459 6.10597 -17.47751 -9.83687 1.2433 2.99139
0.70143 0.12893 -0.17269 100.14256 -26.03481 -10.61034 29.49976 3.12724 -4.80992 -10.18441 -11.26984 -2.11994 -26.04918 -9.88209 31.2438 118.90888 95.03961 12.59703 0.73647 -8.1082 10.07891 -38.31018 118.93783 -108.70877 16.83581 -2.56348 21.95404 3.64587 -17.69764 -17.08058 -6.75028 -3.63349 -4.01031 40.70233 14.29676 6.52263 -16.55347 -9.88815 1.18613 2.96482
0.70331 0.13061 -0.16662 102.34032 -26.82 -9.96568 29.52468 3.16157 -4.51001 -10.07534 -11.1251 -2.11994 -25.92986 -9.83757 31.42032 119.00198 95.24902 12.83879 1.1613 -8.05597 10.14026 -37.97909 119.01896 -108.93756 17.41346 -2.5006 22.96522 3.1739 -18.37806 -17.20939 -6.87393 -3.72367 -4.06078 41.3596 13.54334 6.32486 -15.36084 -9.99074 1.02497 2.8899
0.70552 0.13223 -0.16043 104.53367 -27.55061 -9.377 29.47211 3.22271 -4.2607 -9.97659 -10.98751 -2.11994 -25.84432 -9.78163 31.57769 119.08093 95.37399 12.99361 1.53028 -8.05591 10.16005 -37.6776 119.08668 -109.06637 17.86007 -2.42584 23.90408 2.7941 -19.04853 -17.3249 -6.99561 -3.81899 -4.11359 42.001 12.76438 6.42631 -14.31732 -10.07118 0.92347 2.84327
0.70778 0.13397 -0.15414 106.795 -28.3644 -8.75745 29.47718 3.28198 -4.03752 -9.89494 -10.84993 -2.11994 -25.75661 -9.7285 31.7153 119.16644 95.51323 13.23151 1.93785 -8.03813 10.18631 -37.35278 119.15077 -109.21009 18.39404 -2.33897 24.93246 2.37212 -19.85208 -17.44929 -7.10646 -3.91238 -4.16472 42.76187 11.90103 6.4703 -13.14032 -10.146 0.77257 2.7714
0.70977 0.13546 -0.14815 108.90757 -29.02357 -8.17884 29.39735 3.33101 -3.73352 -9.77024 -10.70879 -2.11994 -25.65519 -9.67506 31.90605 119.24513 95.67223 13.33416 2.28926 -8.02982 10.22035 -37.06403 119.2289 -109.37507 18.80565 -2.2857 25.80111 1.99653 -20.37088 -17.56175 -7.24162 -4.00697 -4.21813 43.27053 11.24111 6.47608 -12.18452 -10.24497 0.69741 2.73937
0.71125 0.13623 -0.14281 110.61808 -29.22518 -7.73417 29.02176 3.36849 -3.21525 -9.5292 -10.55837 -2.11994 -25.54307 -9.61556 32.23796 119.29825 95.76226 12.9954 2.46066 -8.07914 10.26663 -36.89852 119.35139 -109.54334 18.80402 -2.32039 26.18811 1.80296 -20.08247 -17.62497 -7.44536 -4.11044 -4.28051 43.09 11.10853 6.54688 -11.91108 -10.3982 0.8731 2.83788
0.71247 0.13674 -0.13776 112.17817 -29.2701 -7.33668 28.56043 3.3971 -2.62488 -9.24667 -10.40545 -2.11994 -25.41819 -9.55461 32.6201 119.34379 95.87889 12.5209 2.57187 -8.13973 10.31655 -36.7692 119.48492 -109.72652 18.6739 -2.38769 26.41185 1.66239 -19.51476 -17.67712 -7.6724 -4.21486 -4.345 42.65842 11.18129 6.59335 -11.87145 -10.57402 1.12534 2.97646
0.71377 0.13737 -0.13264 113.80577 -29.39414 -6.92197 28.15513 3.42805 -2.08251 -8.98607 -10.25573 -2.11994 -25.29286 -9.49425 32.97506 119.39288 96.03735 12.1291 2.71034 -8.1894 10.35788 -36.61828 119.60459 -109.90775 18.61364 -2.43904 26.71815 1.49286 -19.09796 -17.74075 -7.88596 -4.31676 -4.40739 42.34441 11.16843 6.63378 -11.72346 -10.73954 1.33164 3.09092
0.71522 0.13801 -0.12731 115.43889 -29.48817 -6.48431 27.68212 3.4642 -1.47069 -8.7111 -10.09672 -2.11994 -25.19055 -9.43596 33.35135 119.44212 95.98087 11.65413 2.8527 -8.25852 10.43096 -36.4903 119.76158 -110.07963 18.5141 -2.49683 26.99409 1.33625 -18.58168 -17.77774 -8.11188 -4.42709 -4.47445 42.01535 11.1248 6.72429 -11.57369 -10.90707 1.58143 3.22864
0.71631 0.13856 -0.12247 117.02168 -29.60566 -6.10859 27.32875 3.48807 -0.98887 -8.45705 -9.95674 -2.11994 -25.03924 -9.37152 33.69301 119.48933 96.36799 11.31781 2.97144 -8.29311 10.4382 -36.31987 119.8444 -110.26701 18.46183 -2.54772 27.2919 1.16905 -18.20249 -17.86762 -8.31772 -4.52027 -4.53233 41.6572 11.19457 6.714 -11.48789 -11.07501 1.76014 3.32808
0.71657 0.13896 -0.11882 118.53019 -29.83252 -5.88075 27.31908 3.48113 -0.87727 -8.26759 -9.86916 -2.11994 -24.74785 -9.3002 33.93489 119.52906 98.03863 11.39775 3.03807 -8.21305 10.25868 -36.05379 119.70787 -110.52948 18.57483 -2.57844 27.69868 0.94938 -18.30986 -18.10317 -8.45963 -4.56548 -4.56433 41.2918 11.51193 6.41962 -11.51296 -11.23897 1.72436 3.31183
0.71647 0.13926 -0.11565 119.98729 -30.08677 -5.71648 27.43353 3.46222 -0.90048 -8.10171 -9.80096 -2.11994 -24.40978 -9.22065 34.13553 119.56764 100.13919 11.61937 3.08273 -8.10178 10.01354 -35.73546 119.4982 -110.79616 18.73576 -2.59937 28.13094 0.71973 -18.5586 -18.39285 -8.58074 -4.59347 -4.58702 40.90374 11.93844 6.02872 -11.5968 -11.40206 1.61472 3.25587
0.71649 0.13957 -0.1123 121.45082 -30.324 -5.53114 27.49537 3.44849 -0.86728 -7.92693 -9.72458 -2.11994 -24.09819 -9.13851 34.35312 119.60896 102.00259 11.77744 3.13807 -8.0157 9.80018 -35.42508 119.32983 -111.04025 18.87427 -2.62051 28.54527 0.50278 -18.71566 -18.65954 -8.71344 -4.62971 -4.61405 40.51872 12.32496 5.69414 -11.66144 -11.56521 1.53923 3.21851
0.7167 0.14 -0.10882 122.98405 -30.57526 -5.31387 27.53805 3.43559 -0.81244 -7.74163 -9.64579 -2.11994 -23.76243 -9.08364 34.59187 119.64036 104.05392 11.93451 3.18869 -7.88208 9.57704 -35.19448 119.12852 -111.38509 19.02046 -2.66188 28.98072 0.25456 -18.97494 -18.91878 -8.83893 -4.66439 -4.64079 40.15585 12.67934 5.31035 -11.70458 -11.73127 1.46434 3.18044
0.71641 0.14017 -0.10572 124.35751 -30.80564 -5.17818 27.65148 3.41813 -0.83379 -7.58611 -9.57624 -2.11994 -23.46794 -8.9693 34.7613 119.69262 105.80241 12.12007 3.2444 -7.8417 9.36073 -34.76997 118.97745 -111.50482 19.15199 -2.65687 29.38044 0.06661 -19.06334 -19.20689 -8.97293 -4.69795 -4.66575 39.74437 13.12235 5.00073 -11.80066 -11.88993 1.36911 3.1336
0.71492 0.13968 -0.10357 125.33942 -30.97395 -5.24743 27.92815 3.39204 -1.04913 -7.49326 -9.53119 -2.11994 -23.28401 -8.70028 34.87278 119.7995 106.7186 12.42663 3.32246 -8.05262 9.16263 -33.94722 118.98973 -111.14397 19.33404 -2.53982 29.67486 0.06316 -18.60463 -19.55828 -9.14652 -4.73511 -4.68946 39.20961 13.79519 4.97084 -12.05282 -12.03517 1.24059 3.07488
0.71292 0.13894 -0.10177 126.15571 -31.12058 -5.39735 28.27256 3.36165 -1.33379 -7.43273 -9.49413 -2.11994 -23.14646 -8.3713 34.89068 119.92791 107.29296 12.743 3.40634 -8.36185 8.97772 -32.90607 119.05349 -110.53371 19.48285 -2.37442 29.93325 0.11751 -17.97748 -19.93737 -9.32734 -4.77127 -4.71143 38.62763 14.54993 5.01 -12.35128 -12.17142 1.09307 3.00811
0.71108 0.1383 -0.09978 127.02485 -31.27653 -5.51316 28.58744 3.33258 -1.57619 -7.36618 -9.45096 -2.11994 -22.99698 -8.06358 34.87273 120.04878 107.95426 13.00539 3.4857 -8.63403 8.7965 -31.88522 119.0896 -109.93942 19.57797 -2.22117 30.20931 0.13491 -17.45633 -20.30612 -9.49744 -4.80626 -4.7333 38.06418 15.25872 4.98348 -12.61056 -12.30746 0.95047 2.94301
0.70952 0.1377 -0.09794 127.98857 -31.43592 -5.62011 28.90096 3.3057 -1.86857 -7.26232 -9.4188 -2.11994 -22.80564 -7.77672 35.19225 120.16067 108.92636 13.48279 3.57143 -8.86945 8.5682 -31.20268 119.14233 -109.74037 19.95809 -2.10621 30.48098 0.1972 -16.81811 -20.66781 -9.69785 -4.8475 -4.75862 37.50944 16.00944 5.09643 -12.94568 -12.46241 0.82021 2.88461
0.70726 0.13696 -0.09586 128.71436 -31.58226 -5.76425 29.23222 3.27347 -2.0717 -7.24542 -9.36552 -2.11994 -22.71512 -7.43747 34.77718 120.29572 109.15557 13.5115 3.6465 -9.20956 8.44682 -29.75583 119.17211 -108.67891 19.74493 -1.90374 30.75258 0.17973 -16.37877 -21.04937 -9.83755 -4.87575 -4.77646 36.92906 16.68942 4.93901 -13.13674 -12.57487 0.6617 2.81128
0.7033 0.13594 -0.09307 128.84283 -31.70109 -5.98757 29.59178 3.22704 -2.00931 -7.4446 -9.25036 -2.11994 -22.87664 -6.92332 32.44154 120.49515 107.49138 12.31059 3.68248 -9.77931 8.57565 -26.32526 119.13943 -105.12335 17.82513 -1.44224 31.03581 -0.07193 -16.55749 -21.48499 -9.80391 -4.86804 -4.77394 36.26123 17.16472 3.99832 -12.88714 -12.58057 0.42141 2.69511
0.69863 0.13479 -0.09002 128.73396 -31.80671 -6.24596 29.96689 3.17558 -1.85418 -7.73297 -9.11382 -2.11994 -23.14216 -6.36659 29.35433 120.71609 105.07715 10.65575 3.70887 -10.45898 8.8193 -22.12084 119.0799 -100.74057 15.32342 -0.90112 31.31953 -0.4062 -16.93687 -21.93831 -9.70969 -4.84741 -4.76399 35.57475 17.5631 2.78804 -12.49713 -12.54224 0.15531 2.56507
